<svg width="100%" height="100%" viewBox="0 0 156 30" fill="none" xmlns="http://www.w3.org/2000/svg">
<path fill-rule="evenodd" clip-rule="evenodd" d="M45.1972 3.61655C44.625 4.73959 44.625 6.20972 44.625 9.15V20.85C44.625 23.7903 44.625 25.2604 45.1972 26.3834C45.7006 27.3713 46.5037 28.1744 47.4916 28.6778C48.6146 29.25 50.0847 29.25 53.025 29.25H146.85C149.79 29.25 151.26 29.25 152.383 28.6778C153.371 28.1744 154.174 27.3713 154.678 26.3834C155.25 25.2604 155.25 23.7903 155.25 20.85V9.15C155.25 6.20972 155.25 4.73959 154.678 3.61655C154.174 2.6287 153.371 1.82555 152.383 1.32222C151.26 0.75 149.79 0.75 146.85 0.75H53.025C50.0847 0.75 48.6146 0.75 47.4916 1.32222C46.5037 1.82555 45.7006 2.6287 45.1972 3.61655ZM60.8068 11.205H57.1768V18.315C57.1768 19.035 57.3768 19.595 57.7768 19.995C58.1768 20.395 58.6968 20.595 59.3368 20.595C59.7968 20.595 60.2868 20.525 60.8068 20.385V23.655C60.2268 23.795 59.5868 23.865 58.8868 23.865C57.2068 23.865 55.8668 23.425 54.8668 22.545C53.8868 21.665 53.3968 20.385 53.3968 18.705V11.205H50.7568V8.055H53.3968V3.465H57.1768V8.055H60.8068V11.205ZM93.869 22.875C94.989 23.535 96.319 23.865 97.859 23.865C98.839 23.865 99.729 23.675 100.529 23.295C101.349 22.895 101.939 22.395 102.299 21.795V23.625H106.079V3.465H102.299V9.82499C101.839 9.22499 101.209 8.74499 100.409 8.38499C99.609 8.00499 98.739 7.81499 97.799 7.81499C96.299 7.81499 94.989 8.15499 93.869 8.83499C92.769 9.495 91.919 10.435 91.319 11.655C90.719 12.855 90.419 14.245 90.419 15.825C90.419 17.405 90.709 18.805 91.289 20.025C91.889 21.245 92.749 22.195 93.869 22.875ZM100.559 20.025C99.939 20.405 99.219 20.595 98.399 20.595C97.579 20.595 96.859 20.405 96.239 20.025C95.619 19.625 95.129 19.065 94.769 18.345C94.429 17.605 94.259 16.765 94.259 15.825C94.259 14.885 94.429 14.055 94.769 13.335C95.129 12.615 95.619 12.065 96.239 11.685C96.859 11.285 97.579 11.085 98.399 11.085C99.219 11.085 99.939 11.285 100.559 11.685C101.199 12.065 101.689 12.615 102.029 13.335C102.369 14.055 102.539 14.885 102.539 15.825C102.539 16.785 102.369 17.625 102.029 18.345C101.689 19.065 101.199 19.625 100.559 20.025ZM113.354 19.395C112.77 18.7195 112.411 17.8495 112.275 16.785H123.644C123.684 16.265 123.704 15.805 123.704 15.405C123.704 14.105 123.414 12.875 122.834 11.715C122.274 10.555 121.424 9.61499 120.284 8.89499C119.144 8.17499 117.764 7.81499 116.144 7.81499C114.504 7.81499 113.114 8.19499 111.974 8.95499C110.834 9.69499 109.974 10.675 109.394 11.895C108.834 13.115 108.554 14.425 108.554 15.825C108.554 17.225 108.854 18.535 109.454 19.755C110.054 20.975 110.944 21.965 112.124 22.725C113.304 23.485 114.714 23.865 116.354 23.865C117.634 23.865 118.784 23.655 119.804 23.235C120.844 22.815 121.694 22.205 122.354 21.405C123.014 20.585 123.434 19.625 123.614 18.525H119.864C119.684 19.205 119.284 19.735 118.664 20.115C118.064 20.495 117.324 20.685 116.444 20.685C115.144 20.685 114.114 20.255 113.354 19.395ZM119.624 13.935H112.393C112.463 13.6147 112.553 13.3147 112.664 13.035C112.984 12.275 113.434 11.695 114.014 11.295C114.614 10.895 115.324 10.695 116.144 10.695C116.824 10.695 117.414 10.835 117.914 11.115C118.434 11.395 118.834 11.785 119.114 12.285C119.394 12.765 119.564 13.315 119.624 13.935ZM134.249 11.325C134.769 11.325 135.269 11.385 135.749 11.505V7.90499C135.509 7.84499 135.159 7.81499 134.699 7.81499C133.739 7.81499 132.799 8.11499 131.879 8.71499C130.979 9.29499 130.359 10.025 130.019 10.905V8.05499H126.239V23.625H130.019V17.895C130.019 16.415 130.209 15.185 130.589 14.205C130.989 13.205 131.499 12.475 132.119 12.015C132.759 11.555 133.469 11.325 134.249 11.325ZM139.593 23.175C140.613 23.635 141.783 23.865 143.103 23.865C144.343 23.865 145.443 23.645 146.403 23.205C147.383 22.765 148.143 22.175 148.683 21.435C149.223 20.675 149.493 19.845 149.493 18.945C149.493 17.485 149.083 16.405 148.263 15.705C147.463 15.005 146.313 14.505 144.813 14.205L142.383 13.695C141.843 13.595 141.423 13.425 141.123 13.185C140.843 12.945 140.703 12.645 140.703 12.285C140.703 11.845 140.893 11.495 141.273 11.235C141.653 10.975 142.153 10.845 142.773 10.845C143.453 10.845 144.053 11.015 144.573 11.355C145.113 11.695 145.423 12.165 145.503 12.765H149.193C149.073 11.745 148.713 10.865 148.113 10.125C147.533 9.38499 146.783 8.81499 145.863 8.41499C144.943 8.01499 143.913 7.81499 142.773 7.81499C141.613 7.81499 140.593 8.01499 139.713 8.41499C138.833 8.81499 138.153 9.35499 137.673 10.035C137.193 10.715 136.953 11.465 136.953 12.285C136.953 13.685 137.373 14.755 138.213 15.495C139.053 16.215 140.163 16.725 141.543 17.025L143.973 17.535C144.513 17.635 144.923 17.815 145.203 18.075C145.503 18.315 145.653 18.635 145.653 19.035C145.653 19.515 145.413 19.905 144.933 20.205C144.473 20.505 143.863 20.655 143.103 20.655C142.223 20.655 141.483 20.405 140.883 19.905C140.283 19.405 139.963 18.845 139.923 18.225H136.233C136.273 19.325 136.583 20.305 137.163 21.165C137.763 22.025 138.573 22.695 139.593 23.175ZM79.5892 23.865C78.5492 23.865 77.6192 23.675 76.7992 23.295C75.9792 22.915 75.3292 22.385 74.8492 21.705C74.3892 21.005 74.1592 20.225 74.1592 19.365C74.1592 18.005 74.6292 16.915 75.5692 16.095C76.5092 15.255 77.8492 14.725 79.5892 14.505L82.7092 14.085C83.1092 14.025 83.4192 13.895 83.6392 13.695C83.8592 13.475 83.9692 13.195 83.9692 12.855C83.9692 12.255 83.6992 11.755 83.1592 11.355C82.6192 10.955 81.9092 10.755 81.0292 10.755C80.1492 10.755 79.4192 10.975 78.8392 11.415C78.2792 11.855 77.9692 12.465 77.9092 13.245H74.2492C74.3692 12.145 74.7192 11.185 75.2992 10.365C75.8792 9.54499 76.6492 8.91499 77.6092 8.47499C78.5892 8.03499 79.7292 7.81499 81.0292 7.81499C82.3892 7.81499 83.5692 8.06499 84.5692 8.56499C85.5892 9.04499 86.3692 9.74499 86.9092 10.665C87.4692 11.565 87.7492 12.625 87.7492 13.845V19.335C87.7492 19.755 87.8192 20.075 87.9592 20.295C88.1192 20.495 88.3692 20.595 88.7092 20.595C88.8892 20.575 89.0592 20.555 89.2192 20.535V23.625C88.5992 23.745 87.9992 23.805 87.4192 23.805C86.5992 23.805 85.9192 23.615 85.3792 23.235C84.8592 22.855 84.5492 22.305 84.4492 21.585C84.1092 22.285 83.4992 22.845 82.6192 23.265C81.7592 23.665 80.7492 23.865 79.5892 23.865ZM80.2192 20.985C81.4192 20.985 82.3592 20.605 83.0392 19.845C83.7192 19.085 84.0592 18.105 84.0592 16.905V16.455L80.2192 17.085C79.4592 17.205 78.8892 17.445 78.5092 17.805C78.1292 18.145 77.9392 18.605 77.9392 19.185C77.9392 19.725 78.1492 20.165 78.5692 20.505C78.9892 20.825 79.5392 20.985 80.2192 20.985ZM71.404 11.325C71.924 11.325 72.424 11.385 72.904 11.505V7.90499C72.664 7.84499 72.314 7.81499 71.854 7.81499C70.894 7.81499 69.954 8.11499 69.034 8.71499C68.134 9.29499 67.514 10.025 67.174 10.905V8.05499H63.3941V23.625H67.174V17.895C67.174 16.415 67.364 15.185 67.744 14.205C68.144 13.205 68.654 12.475 69.274 12.015C69.914 11.555 70.624 11.325 71.404 11.325Z" fill="white"></path>
<path fill-rule="evenodd" clip-rule="evenodd" d="M1.54688 11.2044H4.18688V23.6244H7.96688V11.2044H11.6269V8.05437H7.96688V7.00437C7.96688 6.28437 8.16688 5.72437 8.56688 5.32438C8.98688 4.92437 9.49688 4.72437 10.0969 4.72437C10.6369 4.72437 11.1469 4.78437 11.6269 4.90438V1.69438C11.0469 1.55438 10.3769 1.48438 9.61688 1.48438C7.99688 1.48438 6.68688 1.92438 5.68688 2.80438C4.68688 3.68438 4.18688 4.96438 4.18688 6.64437V8.05437H1.54688V11.2044ZM19.8021 23.8644C18.2821 23.8644 16.9121 23.5144 15.6921 22.8144C14.4921 22.1144 13.5521 21.1544 12.8721 19.9344C12.1921 18.7144 11.8521 17.3444 11.8521 15.8244C11.8521 14.3044 12.1921 12.9344 12.8721 11.7144C13.5521 10.4944 14.4921 9.54438 15.6921 8.86438C16.9121 8.16438 18.2821 7.81438 19.8021 7.81438C21.3221 7.81438 22.6821 8.16438 23.8821 8.86438C25.1021 9.54438 26.0521 10.4944 26.7321 11.7144C27.4121 12.9144 27.7521 14.2844 27.7521 15.8244C27.7521 17.3444 27.4121 18.7144 26.7321 19.9344C26.0521 21.1544 25.1021 22.1144 23.8821 22.8144C22.6821 23.5144 21.3221 23.8644 19.8021 23.8644ZM19.8021 20.5944C20.6221 20.5944 21.3321 20.3944 21.9321 19.9944C22.5521 19.5944 23.0321 19.0344 23.3721 18.3144C23.7321 17.5744 23.9121 16.7444 23.9121 15.8244C23.9121 14.9044 23.7321 14.0844 23.3721 13.3644C23.0321 12.6444 22.5421 12.0844 21.9021 11.6844C21.2821 11.2844 20.5821 11.0844 19.8021 11.0844C19.0021 11.0844 18.2821 11.2844 17.6421 11.6844C17.0221 12.0844 16.5421 12.6444 16.2021 13.3644C15.8821 14.0844 15.7221 14.9044 15.7221 15.8244C15.7221 16.7644 15.8821 17.5944 16.2021 18.3144C16.5421 19.0344 17.0221 19.5944 17.6421 19.9944C18.2621 20.3944 18.9821 20.5944 19.8021 20.5944ZM38.7615 11.5044C38.2815 11.3844 37.7815 11.3244 37.2615 11.3244C36.4815 11.3244 35.7715 11.5544 35.1315 12.0144C34.5115 12.4744 34.0015 13.2044 33.6015 14.2044C33.2215 15.1844 33.0315 16.4144 33.0315 17.8944V23.6244H29.2515V8.05438H33.0315V10.9044C33.3715 10.0244 33.9915 9.29438 34.8915 8.71438C35.8115 8.11438 36.7515 7.81438 37.7115 7.81438C38.1715 7.81438 38.5215 7.84438 38.7615 7.90438V11.5044Z" fill="white"></path>
</svg>